<svg width="800" height="600" xmlns="http://www.w3.org/2000/svg">

 <g>
  <title>Layer 1</title>
  <path transform="rotate(-44 291 156)" id="svg_4" d="m291,202c-55.24862,0 -100,-20.58564 -100,-46c0,-25.41436 44.75138,-46 100,-46c55.24862,0 100,20.58564 100,46c0,25.41436 -44.75138,46 -100,46z" opacity="undefined" stroke="#000" fill="none"/>
  <path transform="rotate(-44 506 373)" id="svg_7" d="m506,419c-55.24862,0 -100,-20.58564 -100,-46c0,-25.41436 44.75138,-46 100,-46c55.24862,0 100,20.58564 100,46c0,25.41436 -44.75138,46 -100,46z" opacity="undefined" stroke="#000" fill="none"/>
  <path transform="rotate(45 280 357)" id="svg_8" d="m280,403c-55.24862,0 -100,-20.58564 -100,-46c0,-25.41436 44.75138,-46 100,-46c55.24862,0 100,20.58564 100,46c0,25.41436 -44.75138,46 -100,46z" opacity="undefined" stroke="#000" fill="none"/>
  <path transform="rotate(45 504 155)" id="svg_9" d="m504,201c-55.24862,0 -100,-20.58564 -100,-46c0,-25.41436 44.75138,-46 100,-46c55.24862,0 100,20.58564 100,46c0,25.41436 -44.75138,46 -100,46z" opacity="undefined" stroke="#000" fill="none"/>
  <path id="svg_10" d="m400,343c-42.54144,0 -77,-34.45856 -77,-77c0,-42.54144 34.45856,-77 77,-77c42.54144,0 77,34.45856 77,77c0,42.54144 -34.45856,77 -77,77z" opacity="undefined" stroke="#000" fill="none"/>
 </g>
</svg>